<svg width="82" height="50" viewBox="0 0 82 50" fill="none" xmlns="http://www.w3.org/2000/svg">
<g clip-path="url(#clip0_741_38)">
<path d="M40.3513 50.0002C40.0818 50.0002 39.8142 49.9295 39.578 49.7935L37.1166 48.3363C36.749 48.1307 36.9284 48.058 37.0497 48.0161C37.5398 47.8445 37.6393 47.8057 38.1625 47.5086C38.2175 47.4772 38.2895 47.4883 38.3458 47.5215L40.2367 48.6436C40.3049 48.6805 40.4018 48.6805 40.4651 48.6436L47.8379 44.3878C47.9062 44.3491 47.9505 44.2697 47.9505 44.1885V35.6808C47.9505 35.5959 47.9062 35.5202 47.8364 35.4778L40.4666 31.2257C40.3983 31.1851 40.3079 31.1851 40.2396 31.2257L32.8713 35.4778C32.7998 35.5184 32.7544 35.5977 32.7544 35.6789V44.1867C32.7544 44.2679 32.7987 44.3454 32.8689 44.3841L34.8878 45.5505C35.9841 46.0986 36.654 45.4527 36.654 44.8031V36.406C36.654 36.2861 36.7481 36.1938 36.8681 36.1938H37.8019C37.9181 36.1938 38.0141 36.2861 38.0141 36.406V44.8068C38.0141 46.2684 37.2169 47.1081 35.8309 47.1081C35.4046 47.1081 35.0687 47.1081 34.1312 46.6467L32.1971 45.532C31.7191 45.2552 31.4238 44.7385 31.4238 44.1867V35.6789C31.4238 35.1253 31.7191 34.6085 32.1971 34.3354L39.5773 30.0778C40.0442 29.8139 40.6643 29.8139 41.1275 30.0778L48.4984 34.3372C48.9746 34.6122 49.2717 35.1271 49.2717 35.6808V44.1885C49.2717 44.7403 48.9746 45.2552 48.4984 45.532L41.1275 49.7896C40.8913 49.9262 40.6237 49.9963 40.3505 49.9963" fill="#689F63"/>
<path d="M42.6289 44.1378C39.4029 44.1378 38.7266 42.6569 38.7266 41.4149C38.7266 41.2968 38.8218 41.2027 38.9401 41.2027H39.8924C39.9976 41.2027 40.0861 41.2793 40.1028 41.3832C40.2467 42.3535 40.6749 42.843 42.6256 42.843C44.1795 42.843 44.8402 42.4919 44.8402 41.6679C44.8402 41.1936 44.6519 40.8411 42.238 40.6049C40.219 40.4056 38.9715 39.9608 38.9715 38.346C38.9715 36.8586 40.2264 35.9727 42.3284 35.9727C44.6888 35.9727 45.8589 36.7921 46.0065 38.5527C46.0121 38.6136 45.9899 38.6727 45.9493 38.717C45.9087 38.7594 45.8515 38.7853 45.7924 38.7853H44.8346C44.735 38.7853 44.6482 38.7151 44.6279 38.6192C44.3972 37.5986 43.8399 37.2719 42.3247 37.2719C40.6287 37.2719 40.4313 37.8625 40.4313 38.3054C40.4313 38.8425 40.6638 38.9993 42.9522 39.302C45.2185 39.6028 46.2944 40.0273 46.2944 41.6199C46.2944 43.2255 44.9546 44.1464 42.6182 44.1464M51.5984 35.1238H51.8457C52.0487 35.1238 52.0874 34.9817 52.0874 34.8986C52.0874 34.6809 51.938 34.6809 51.8549 34.6809H51.6002L51.5984 35.1238ZM51.2976 34.4262H51.8457C52.0339 34.4262 52.403 34.4262 52.403 34.847C52.403 35.1404 52.2148 35.2013 52.1022 35.2382C52.3218 35.253 52.3366 35.3969 52.3661 35.5999C52.3809 35.7273 52.4049 35.9469 52.4492 36.0207H52.1114C52.1022 35.9469 52.0505 35.5409 52.0505 35.5187C52.0284 35.4283 51.997 35.384 51.8844 35.384H51.6058V36.0225H51.2976V34.4262ZM50.6387 35.2197C50.6387 35.8804 51.1721 36.4156 51.8272 36.4156C52.4879 36.4156 53.0213 35.8694 53.0213 35.2197C53.0213 34.5572 52.4805 34.0312 51.8254 34.0312C51.1795 34.0312 50.6369 34.5498 50.6369 35.2179M53.2501 35.2234C53.2501 36.0059 52.6097 36.6445 51.8291 36.6445C51.054 36.6445 50.408 36.0133 50.408 35.2234C50.408 34.4188 51.0687 33.8024 51.8291 33.8024C52.595 33.8024 53.2483 34.4206 53.2483 35.2234" fill="#689F63"/>
<path fill-rule="evenodd" clip-rule="evenodd" d="M17.5205 16.711C17.5205 16.3714 17.3414 16.0595 17.0484 15.8907L9.23157 11.3932C9.09962 11.3157 8.95179 11.2751 8.80194 11.2695H8.7211C8.57125 11.2751 8.42343 11.3157 8.28926 11.3932L0.472818 15.8907C0.181597 16.0604 0 16.3723 0 16.7119L0.0171632 28.8258C0.0171632 28.9937 0.103902 29.1506 0.251542 29.2336C0.395491 29.3222 0.57635 29.3222 0.720299 29.2336L5.36727 26.5724C5.66071 26.3978 5.83972 26.0893 5.83972 25.753V20.0938C5.83972 19.7561 6.01874 19.4442 6.31125 19.2762L8.28963 18.1368C8.43653 18.0519 8.59783 18.0098 8.76208 18.0098C8.92374 18.0098 9.08873 18.0516 9.23157 18.1366L11.209 19.2757C11.5017 19.4436 11.6815 19.7555 11.6815 20.0932V25.7521C11.6815 26.088 11.8629 26.398 12.1548 26.5715L16.7989 29.2309C16.9447 29.3176 17.1261 29.3176 17.2713 29.2309C17.4145 29.1478 17.5053 28.991 17.5053 28.823L17.5205 16.711ZM54.4061 23.0182C54.4061 23.1025 54.3613 23.1806 54.288 23.2223L51.6032 24.7699C51.5303 24.8118 51.4402 24.8118 51.3675 24.7699L48.6823 23.2223C48.6085 23.1804 48.5642 23.1023 48.5642 23.0182V19.9185C48.5642 19.8339 48.6085 19.7561 48.6805 19.7136L51.3638 18.1634C51.4377 18.1209 51.5281 18.1209 51.6019 18.1634L54.2871 19.7136C54.3609 19.7561 54.4052 19.8339 54.4052 19.9185L54.4061 23.0182ZM55.1314 0.0597543C54.9849 -0.0218169 54.8066 -0.0196023 54.6619 0.0647372C54.518 0.14963 54.429 0.304652 54.429 0.472593V12.4684C54.429 12.5865 54.3663 12.6954 54.264 12.7544C54.1625 12.8135 54.0361 12.8135 53.9337 12.7544L51.9756 11.6266C51.684 11.4579 51.3249 11.4579 51.0322 11.6266L43.2128 16.1394C42.9207 16.3074 42.7404 16.6193 42.7404 16.9551V25.9833C42.7404 26.3211 42.9207 26.6311 43.2128 26.8009L51.0322 31.3168C51.3242 31.4848 51.6837 31.4848 51.9765 31.3168L59.7959 26.799C60.0875 26.6293 60.2684 26.3192 60.2684 25.9815V3.48113C60.2684 3.13861 60.082 2.82358 59.783 2.65619L55.1314 0.0597543ZM81.1702 19.8369C81.4606 19.6682 81.6395 19.3567 81.6395 19.0208V16.8328C81.6395 16.4962 81.4605 16.1856 81.1694 16.0162L73.3999 11.5057C73.1064 11.336 72.7466 11.336 72.4531 11.5057L64.6356 16.018C64.3421 16.1878 64.1631 16.4978 64.1631 16.8356V25.8601C64.1631 26.1996 64.3458 26.5134 64.6393 26.6813L72.407 31.1087C72.693 31.2729 73.0437 31.2748 73.3334 31.1142L78.0321 28.5028C78.1797 28.4198 78.2738 28.2629 78.2738 28.0931C78.2738 27.9233 78.1834 27.7646 78.0358 27.6816L70.1702 23.1675C70.0226 23.0844 69.9322 22.9276 69.9322 22.7596V19.9286C69.9322 19.7596 70.0208 19.6038 70.1684 19.5197L72.6155 18.1078C72.7613 18.023 72.9403 18.023 73.0861 18.1078L75.5351 19.5197C75.6809 19.6027 75.7713 19.7596 75.7713 19.9275V22.1532C75.7713 22.3211 75.8618 22.478 76.0076 22.5629C76.1534 22.6459 76.3342 22.6459 76.48 22.561L81.1702 19.8369Z" fill="#333333"/>
<path fill-rule="evenodd" clip-rule="evenodd" d="M72.812 19.4147C72.8673 19.382 72.9367 19.382 72.9928 19.4147L74.4932 20.2802C74.5493 20.3127 74.5836 20.3725 74.5836 20.4371V22.17C74.5836 22.2346 74.5493 22.2944 74.4932 22.3269L72.9928 23.1924C72.9367 23.2251 72.8673 23.2251 72.812 23.1924L71.3125 22.3269C71.2553 22.2944 71.2202 22.2346 71.2202 22.17V20.4371C71.2202 20.3725 71.2534 20.3127 71.3106 20.2802L72.812 19.4147Z" fill="#689F63"/>
<mask id="mask0_741_38" style="mask-type:luminance" maskUnits="userSpaceOnUse" x="21" y="11" width="18" height="21">
<path d="M29.662 11.5508L21.8869 16.0385C21.5956 16.2065 21.417 16.5165 21.417 16.8517V25.8333C21.417 26.1687 21.5956 26.4785 21.8869 26.6465L29.6625 31.1377C29.9532 31.3051 30.3116 31.3051 30.6019 31.1377L38.3762 26.6465C38.666 26.4785 38.845 26.1685 38.845 25.8333V16.8517C38.845 16.5165 38.666 16.2065 38.3744 16.0385L30.6011 11.5508C30.4553 11.4672 30.2929 11.4253 30.1305 11.4253C29.9681 11.4253 29.8057 11.4672 29.6599 11.5508" fill="white"/>
</mask>
<g mask="url(#mask0_741_38)">
<path d="M46.702 15.2765L24.7931 4.53754L13.5596 27.4539L35.4679 38.1934L46.702 15.2765Z" fill="url(#paint0_linear_741_38)"/>
</g>
<mask id="mask1_741_38" style="mask-type:luminance" maskUnits="userSpaceOnUse" x="21" y="11" width="18" height="21">
<path d="M21.6094 26.4036C21.6837 26.5001 21.7768 26.5837 21.8862 26.6465L28.5558 30.499L29.6668 31.1375C29.8329 31.2335 30.0223 31.2741 30.2083 31.2602C30.2703 31.2552 30.3323 31.2436 30.3929 31.2265L38.5932 16.2115C38.5304 16.1432 38.457 16.086 38.3747 16.038L33.2837 13.0981L30.5925 11.5497C30.5161 11.5054 30.4333 11.4741 30.3489 11.4519L21.6094 26.4036Z" fill="white"/>
</mask>
<g mask="url(#mask1_741_38)">
<path d="M12.1367 18.4528L27.6066 39.3906L48.0659 24.2748L32.595 3.33762L12.1367 18.4528Z" fill="url(#paint1_linear_741_38)"/>
</g>
<mask id="mask2_741_38" style="mask-type:luminance" maskUnits="userSpaceOnUse" x="21" y="11" width="18" height="21">
<path d="M30.0377 11.4305C29.9072 11.4434 29.7797 11.484 29.6621 11.5508L21.9092 16.0256L30.2693 31.2528C30.3856 31.2362 30.5 31.1975 30.6033 31.1377L38.3784 26.6465C38.6184 26.5073 38.7826 26.2718 38.8324 26.005L30.3099 11.4458C30.2472 11.4334 30.1844 11.427 30.1198 11.427C30.094 11.427 30.0681 11.4283 30.0423 11.4307" fill="white"/>
</mask>
<g mask="url(#mask2_741_38)">
<path d="M21.9092 11.427V31.2532H38.8293V11.427H21.9092Z" fill="url(#paint2_linear_741_38)"/>
</g>
</g>
<defs>
<linearGradient id="paint0_linear_741_38" x1="35.741" y1="9.89014" x2="24.5082" y2="32.805" gradientUnits="userSpaceOnUse">
<stop offset="0.3" stop-color="#3E863D"/>
<stop offset="0.5" stop-color="#55934F"/>
<stop offset="0.8" stop-color="#5AAD45"/>
</linearGradient>
<linearGradient id="paint1_linear_741_38" x1="19.9644" y1="29.0417" x2="40.4244" y2="13.9242" gradientUnits="userSpaceOnUse">
<stop offset="0.57" stop-color="#3E863D"/>
<stop offset="0.72" stop-color="#619857"/>
<stop offset="1" stop-color="#76AC64"/>
</linearGradient>
<linearGradient id="paint2_linear_741_38" x1="21.9149" y1="21.3406" x2="38.8325" y2="21.3406" gradientUnits="userSpaceOnUse">
<stop offset="0.16" stop-color="#6BBF47"/>
<stop offset="0.38" stop-color="#79B461"/>
<stop offset="0.47" stop-color="#75AC64"/>
<stop offset="0.7" stop-color="#659E5A"/>
<stop offset="0.9" stop-color="#3E863D"/>
</linearGradient>
<clipPath id="clip0_741_38">
<rect width="81.6397" height="50" fill="white"/>
</clipPath>
</defs>
</svg>
