<svg width="55" height="55" viewBox="0 0 55 55" fill="none" xmlns="http://www.w3.org/2000/svg">
<path d="M50.396 27.0818C50.475 22.1994 49.375 16.3934 47.0834 9.58147L45.2867 4.23959L42.8461 9.31907C42.7154 9.59064 42.5665 9.85647 42.4106 10.1189C38.4014 6.67678 33.1993 4.58334 27.4999 4.58334C14.843 4.58334 4.58325 14.8431 4.58325 27.5C4.58325 40.1569 14.843 50.4167 27.4999 50.4167C40.1568 50.4167 50.4166 40.1569 50.4166 27.5C50.4166 27.3591 50.3983 27.2227 50.396 27.0818Z" fill="#8BC34A"/>
<path d="M45.1286 37.306C41.5502 42.2354 35.216 42.5001 29.2542 42.3958H21.4843H19.2637C24.3375 40.5705 27.3567 40.1362 30.4402 38.5C36.2472 35.4464 41.9879 28.765 43.183 21.8144C40.9715 28.5015 34.2695 34.2467 28.1622 36.583C23.9777 38.1792 16.4197 39.7283 16.4197 39.7283L16.1138 39.5622C10.969 36.9738 10.8132 25.4535 20.1666 21.7342C24.2618 20.1036 28.1794 20.9997 32.6035 19.9089C37.3266 18.7493 42.79 15.0872 45.0129 10.3125C47.5016 17.9518 50.4968 29.9131 45.1286 37.306ZM17.9529 44.0516C17.6297 44.4526 17.1359 44.6875 16.6203 44.6875C15.6772 44.6875 14.9072 43.9118 14.9072 42.9688C14.9072 42.0257 15.683 41.25 16.6203 41.25C17.011 41.25 17.396 41.3852 17.6985 41.635C18.4318 42.2297 18.5464 43.3182 17.9529 44.0516Z" fill="white"/>
</svg>
