<svg width="50" height="50" viewBox="0 0 50 50" fill="none" xmlns="http://www.w3.org/2000/svg">
<g clip-path="url(#clip0_757_22)">
<path d="M46.25 0H3.75C2.75544 0 1.80161 0.395088 1.09835 1.09835C0.395088 1.80161 0 2.75544 0 3.75V46.25C0 47.2446 0.395088 48.1984 1.09835 48.9016C1.80161 49.6049 2.75544 50 3.75 50H46.25C47.2446 50 48.1984 49.6049 48.9016 48.9016C49.6049 48.1984 50 47.2446 50 46.25V3.75C50 2.75544 49.6049 1.80161 48.9016 1.09835C48.1984 0.395088 47.2446 0 46.25 0ZM15 42.5H7.5V20H15V42.5ZM11.25 15.625C10.3905 15.6004 9.55721 15.3231 8.85438 14.8277C8.15154 14.3323 7.61029 13.6407 7.29824 12.8394C6.98619 12.0382 6.91719 11.1627 7.09985 10.3224C7.28251 9.48216 7.70874 8.71435 8.32528 8.11493C8.94182 7.51552 9.72133 7.11108 10.5664 6.95216C11.4115 6.79323 12.2847 6.88686 13.0768 7.22135C13.869 7.55585 14.545 8.11636 15.0205 8.83287C15.4959 9.54938 15.7496 10.3901 15.75 11.25C15.7303 12.4259 15.2458 13.5461 14.4026 14.3659C13.5594 15.1857 12.426 15.6384 11.25 15.625ZM42.5 42.5H35V30.65C35 27.1 33.5 25.825 31.55 25.825C30.9783 25.8631 30.4197 26.0137 29.9064 26.2683C29.393 26.5228 28.935 26.8763 28.5587 27.3084C28.1824 27.7405 27.8951 28.2426 27.7134 28.7861C27.5317 29.3295 27.4592 29.9035 27.5 30.475C27.4876 30.5913 27.4876 30.7087 27.5 30.825V42.5H20V20H27.25V23.25C27.9813 22.1375 28.9861 21.2314 30.168 20.6186C31.3499 20.0057 32.6694 19.7067 34 19.75C37.875 19.75 42.4 21.9 42.4 28.9L42.5 42.5Z" fill="black"/>
</g>
<defs>
<clipPath id="clip0_757_22">
<rect width="50" height="50" fill="white"/>
</clipPath>
</defs>
</svg>
