<svg width="50" height="49" viewBox="0 0 50 49" fill="none" xmlns="http://www.w3.org/2000/svg">
<g clip-path="url(#clip0_727_166)">
<path fill-rule="evenodd" clip-rule="evenodd" d="M25.0207 0.0203857C11.1849 0.0203857 0 11.2877 0 25.227C0 36.3694 7.16655 45.8012 17.1084 49.1394C18.3514 49.3903 18.8067 48.597 18.8067 47.9297C18.8067 47.3453 18.7658 45.3423 18.7658 43.2553C11.8056 44.7579 10.3562 40.2505 10.3562 40.2505C9.23769 37.3291 7.58037 36.5783 7.58037 36.5783C5.30231 35.0342 7.7463 35.0342 7.7463 35.0342C10.2733 35.2011 11.5992 37.6216 11.5992 37.6216C13.8358 41.4607 17.4398 40.3759 18.8897 39.7081C19.0966 38.0805 19.7599 36.9537 20.4641 36.3279C14.9128 35.7435 9.07227 33.5735 9.07227 23.8913C9.07227 21.1369 10.0658 18.8835 11.6402 17.1309C11.3918 16.505 10.5217 13.9171 11.8891 10.4534C11.8891 10.4534 14.0017 9.78559 18.7653 13.0408C20.8047 12.4891 22.9079 12.2084 25.0207 12.206C27.1333 12.206 29.2869 12.4985 31.2756 13.0408C36.0396 9.78559 38.1523 10.4534 38.1523 10.4534C39.5197 13.9171 38.6491 16.505 38.4007 17.1309C40.0165 18.8835 40.9691 21.1369 40.9691 23.8913C40.9691 33.5735 35.1285 35.7015 29.5358 36.3279C30.4475 37.1207 31.2341 38.6228 31.2341 41.0018C31.2341 44.382 31.1931 47.0949 31.1931 47.9292C31.1931 48.597 31.649 49.3903 32.8914 49.1399C42.8333 45.8007 49.9999 36.3694 49.9999 25.227C50.0409 11.2877 38.815 0.0203857 25.0207 0.0203857Z" fill="black"/>
</g>
<defs>
<clipPath id="clip0_727_166">
<rect width="50" height="48.9796" fill="white" transform="translate(0 0.0203857)"/>
</clipPath>
</defs>
</svg>
