<svg width="50" height="50" viewBox="0 0 50 50" fill="none" xmlns="http://www.w3.org/2000/svg">
<path d="M50 43.0556C50 46.8917 46.8917 50 43.0556 50H6.94444C3.10972 50 0 46.8917 0 43.0556V6.94444C0 3.10833 3.10972 0 6.94444 0H43.0556C46.8917 0 50 3.10833 50 6.94444V43.0556Z" fill="black"/>
<path d="M8.33331 18.0556H15.2778V41.6667H8.33331V18.0556ZM11.7847 15.2778H11.7458C9.67359 15.2778 8.33331 13.7334 8.33331 11.8042C8.33331 9.83337 9.71526 8.33337 11.825 8.33337C13.9375 8.33337 15.2389 9.83337 15.2778 11.8042C15.2778 13.732 13.9375 15.2778 11.7847 15.2778ZM41.6666 41.6667H34.7222V29.0292C34.7222 25.9764 33.0208 23.8931 30.2889 23.8931C28.2041 23.8931 27.0764 25.2987 26.5291 26.657C26.3291 27.1431 26.3889 28.4875 26.3889 29.1667V41.6667H19.4444V18.0556H26.3889V21.6889C27.3903 20.1389 28.9583 18.0556 32.9694 18.0556C37.9389 18.0556 41.6653 21.1806 41.6653 28.1584L41.6666 41.6667Z" fill="white"/>
</svg>
