<svg width="50" height="71" viewBox="0 0 50 71" fill="none" xmlns="http://www.w3.org/2000/svg">
<g clip-path="url(#clip0_741_24)">
<path d="M50 13.8697L45.4449 64.8986L24.9694 70.5751L4.5503 64.9066L0 13.8697H50Z" fill="#264DE4"/>
<path d="M41.5452 61.6493L45.4378 18.0427H25V66.2363L41.5452 61.6493Z" fill="#2965F1"/>
<path d="M10.4316 36.9716L10.9927 43.231H25.0002V36.9716H10.4316Z" fill="#EBEBEB"/>
<path d="M25 24.3022H24.9784H9.3042L9.87321 30.5618H25V24.3022Z" fill="#EBEBEB"/>
<path d="M24.9998 59.7406V53.2281L24.9724 53.2354L18.0011 51.353L17.5555 46.3608H14.168H11.272L12.1489 56.1891L24.971 59.7486L24.9998 59.7406Z" fill="#EBEBEB"/>
<path d="M11.7671 0H19.3484V3.17037H14.9375V6.34073H19.3484V9.5111H11.7671V0Z" fill="black"/>
<path d="M20.8647 0H28.4461V2.75684H24.0351V3.30821H28.4461V9.64894H20.8647V6.75426H25.2757V6.20289H20.8647V0Z" fill="black"/>
<path d="M29.9624 0H37.5437V2.75684H33.1328V3.30821H37.5437V9.64894H29.9624V6.75426H34.3733V6.20289H29.9624V0Z" fill="black"/>
<path d="M32.6864 43.231L31.9598 51.3491L24.9785 53.2334V59.7456L37.8108 56.1891L37.9049 55.1316L39.3758 38.6524L39.5286 36.9716L40.6586 24.3022H24.9785V30.5618H33.7988L33.2292 36.9716H24.9785V43.231H32.6864Z" fill="white"/>
</g>
<defs>
<clipPath id="clip0_741_24">
<rect width="50" height="70.5751" fill="white"/>
</clipPath>
</defs>
</svg>
